<svg width="307" height="198" viewBox="0 0 307 198" fill="none" xmlns="http://www.w3.org/2000/svg">
<g clip-path="url(#clip0_214_485)">
<path d="M61.3421 148.257C61.095 147.907 60.0262 148.282 59.8297 147.964C59.6339 147.647 60.627 147.164 61.1943 146.06C61.2966 145.86 61.9414 144.606 61.4641 144.219C60.5594 143.485 56.4193 146.513 54.9705 145.522C54.6526 145.305 54.4304 144.871 53.4681 144.166C53.0853 143.885 52.8538 143.759 52.6297 143.806C52.3118 143.873 52.2867 144.231 51.9458 144.935C51.4346 145.991 51.1322 145.928 50.8343 146.77C50.6132 147.396 50.6637 147.76 50.4035 147.831C50.0354 147.931 49.6965 147.267 49.2298 147.327C48.7537 147.387 48.4658 148.16 48.3749 148.738C48.2043 149.824 48.6777 150.54 48.9402 151.293C49.2254 152.112 49.3946 153.357 48.736 155.119L42.2172 170.583C43.6563 167.41 47.8234 158.711 49.5744 155.479C50.0799 154.546 50.638 153.599 51.784 153.226C52.8873 152.866 54.4026 153.081 56.3344 152.689C56.56 152.643 57.1861 152.509 57.2649 152.199C57.33 151.943 56.9618 151.8 57.0183 151.56C57.0942 151.238 57.8184 151.234 58.7083 150.862C59.3359 150.6 59.7268 150.289 60.063 150.021C60.1644 149.94 61.671 148.724 61.3421 148.257Z" fill="#F2F2F2"/>
<path d="M35.695 156.398C35.4192 156.399 35.3298 156.949 35.0875 156.939C34.8461 156.928 34.8509 156.378 34.3711 155.825C34.2845 155.726 33.7392 155.097 33.3758 155.183C32.687 155.345 33.2577 157.929 32.262 158.242C32.0435 158.311 31.7263 158.277 31.0378 158.472C30.7639 158.549 30.6233 158.608 30.5861 158.714C30.5333 158.865 30.7349 158.979 31.0471 159.323C31.5153 159.839 31.3909 159.945 31.7962 160.312C32.0971 160.583 32.3237 160.668 32.29 160.795C32.2422 160.977 31.7576 160.925 31.6576 161.135C31.5555 161.349 31.9229 161.691 32.2339 161.896C32.8174 162.279 33.3716 162.29 33.8864 162.399C34.4459 162.518 35.2204 162.807 36.0576 163.588L43.1913 170.743C41.7568 169.233 37.8884 165.001 36.5093 163.345C36.1112 162.867 35.7205 162.363 35.8334 161.782C35.9421 161.222 36.5045 160.658 36.8334 159.746C36.8718 159.64 36.9743 159.343 36.8163 159.221C36.6857 159.12 36.496 159.231 36.3724 159.138C36.2066 159.014 36.4132 158.713 36.4534 158.238C36.4818 157.903 36.413 157.652 36.3538 157.436C36.3359 157.371 36.0621 156.397 35.695 156.398Z" fill="#F2F2F2"/>
<path d="M41.1962 157.438L41.0301 156.19L41.106 156.095C41.4573 155.657 41.6363 155.23 41.6384 154.824C41.6388 154.759 41.6352 154.695 41.6316 154.629C41.6173 154.369 41.5994 154.045 41.7999 153.667C41.9123 153.457 42.2281 152.97 42.7029 153.03C42.8308 153.045 42.9274 153.095 43.0008 153.153C43.0116 153.138 43.0227 153.124 43.0345 153.108C43.1824 152.918 43.2995 152.837 43.4122 152.758C43.4989 152.698 43.5884 152.636 43.7288 152.489C43.7903 152.424 43.8383 152.367 43.8788 152.32C44.0016 152.176 44.162 152.004 44.4449 152.007C44.7471 152.019 44.9053 152.229 45.0102 152.369C45.1975 152.617 45.2824 152.796 45.3386 152.915C45.359 152.958 45.3823 153.007 45.3941 153.022C45.4915 153.143 46.2831 153.03 46.5814 152.989C47.2513 152.895 47.831 152.814 48.0698 153.169C48.241 153.424 48.1139 153.76 47.6806 154.196C47.5456 154.332 47.4021 154.435 47.2746 154.516C47.3802 154.569 47.4748 154.65 47.5131 154.778C47.6033 155.081 47.2943 155.384 46.595 155.681C46.4214 155.755 46.1875 155.854 45.8599 155.901C45.7056 155.924 45.5667 155.929 45.4478 155.932C45.4453 155.99 45.4292 156.053 45.3873 156.117C45.2645 156.307 45.0088 156.398 44.6235 156.376C44.1996 156.357 43.8505 156.289 43.5426 156.229C43.2737 156.177 43.042 156.133 42.8601 156.144C42.5228 156.167 42.2629 156.394 41.9578 156.689L41.1962 157.438Z" fill="#F2F2F2"/>
<path d="M41.9669 150.004L40.5745 150.456L40.4465 150.418C39.8545 150.243 39.318 150.205 38.8512 150.307C38.777 150.323 38.7038 150.342 38.6292 150.361C38.3336 150.439 37.9662 150.536 37.4817 150.468C37.2114 150.43 36.5716 150.297 36.5205 149.895C36.5054 149.787 36.5376 149.695 36.5855 149.621C36.5662 149.616 36.5467 149.61 36.5257 149.605C36.27 149.533 36.1468 149.458 36.0281 149.386C35.9369 149.331 35.8428 149.273 35.6382 149.196C35.5485 149.163 35.4712 149.138 35.4062 149.117C35.2095 149.054 34.9714 148.967 34.9031 148.735C34.8403 148.486 35.0419 148.304 35.1753 148.183C35.4132 147.968 35.5974 147.853 35.7196 147.777C35.7643 147.75 35.8145 147.718 35.8288 147.705C35.9427 147.595 35.6123 146.979 35.4896 146.746C35.2116 146.225 34.971 145.773 35.3192 145.488C35.5681 145.284 35.9868 145.303 36.5975 145.545C36.7876 145.62 36.9425 145.711 37.0677 145.794C37.1018 145.695 37.1714 145.597 37.3085 145.534C37.6333 145.383 38.0601 145.558 38.5783 146.052C38.7076 146.175 38.8805 146.34 39.0183 146.595C39.0831 146.715 39.1245 146.827 39.1582 146.923C39.2253 146.91 39.3014 146.908 39.3862 146.925C39.6355 146.977 39.8043 147.162 39.8771 147.482C39.9631 147.832 39.9734 148.133 39.9829 148.399C39.9916 148.631 39.9997 148.831 40.0577 148.977C40.1695 149.246 40.4966 149.4 40.9127 149.573L41.9669 150.004Z" fill="#F2F2F2"/>
<path d="M41.1962 146.325L41.0301 145.076L41.106 144.982C41.4573 144.544 41.6363 144.116 41.6384 143.711C41.6388 143.646 41.6352 143.582 41.6316 143.516C41.6173 143.255 41.5994 142.932 41.7999 142.554C41.9123 142.344 42.2281 141.857 42.7029 141.917C42.8308 141.932 42.9274 141.981 43.0008 142.039C43.0116 142.025 43.0227 142.01 43.0345 141.995C43.1824 141.805 43.2995 141.723 43.4122 141.645C43.4989 141.585 43.5884 141.523 43.7288 141.375C43.7903 141.311 43.8383 141.254 43.8788 141.207C44.0016 141.062 44.162 140.891 44.4449 140.894C44.7471 140.906 44.9053 141.116 45.0102 141.255C45.1975 141.504 45.2824 141.683 45.3386 141.802C45.359 141.845 45.3823 141.894 45.3941 141.909C45.4915 142.03 46.2831 141.917 46.5814 141.876C47.2513 141.782 47.831 141.7 48.0698 142.056C48.241 142.311 48.1139 142.647 47.6806 143.083C47.5456 143.219 47.4021 143.322 47.2746 143.402C47.3802 143.456 47.4748 143.537 47.5131 143.665C47.6033 143.967 47.2943 144.271 46.595 144.567C46.4214 144.642 46.1875 144.74 45.8599 144.788C45.7056 144.81 45.5667 144.816 45.4478 144.819C45.4453 144.877 45.4292 144.939 45.3873 145.004C45.2645 145.194 45.0088 145.284 44.6235 145.263C44.1996 145.244 43.8505 145.176 43.5426 145.116C43.2737 145.064 43.042 145.02 42.8601 145.03C42.5228 145.053 42.2629 145.281 41.9578 145.575L41.1962 146.325Z" fill="#F2F2F2"/>
<path d="M42.7137 170.563L42.4029 170.399L42.0405 170.434C42.0348 170.406 42.0151 170.34 41.9854 170.239C41.8232 169.68 41.3287 167.981 40.9162 165.305C40.6284 163.437 40.4654 161.517 40.4318 159.597C40.3981 157.673 40.5063 156.217 40.5929 155.047C40.6584 154.164 40.7379 153.324 40.816 152.505C41.0237 150.318 41.2195 148.251 41.0738 145.964C41.0416 145.453 40.9739 144.39 40.2363 143.259C39.8084 142.603 39.219 142.021 38.4843 141.529L38.9412 141.045C39.7522 141.589 40.4042 142.234 40.8794 142.962C41.6972 144.216 41.7709 145.375 41.8064 145.931C41.9546 148.259 41.7566 150.345 41.5468 152.554C41.4694 153.37 41.3899 154.206 41.3248 155.086C41.2388 156.245 41.1318 157.688 41.1651 159.587C41.198 161.485 41.3591 163.381 41.6431 165.226C42.0506 167.868 42.5379 169.542 42.6979 170.091C42.7831 170.385 42.801 170.447 42.7137 170.563Z" fill="#F2F2F2"/>
<path d="M37.1394 142.51C37.1093 142.51 37.0789 142.509 37.0481 142.507C36.4237 142.479 35.8454 142.164 35.3291 141.572C35.087 141.293 34.9632 140.976 34.7161 140.342C34.6778 140.244 34.4916 139.749 34.3784 139.067C34.3043 138.621 34.3136 138.435 34.4185 138.27C34.5349 138.087 34.7232 137.959 34.9352 137.873C34.9259 137.814 34.9334 137.753 34.9639 137.691C35.0888 137.433 35.4211 137.467 35.6008 137.483C35.6918 137.493 35.8053 137.506 35.9278 137.5C36.1204 137.492 36.2239 137.444 36.3807 137.372C36.5307 137.303 36.7173 137.216 36.994 137.169C37.5397 137.073 37.997 137.203 38.1477 137.246C38.9408 137.468 39.3318 137.987 39.7844 138.589C39.8746 138.709 40.1843 139.148 40.3888 139.75C40.5363 140.184 40.5155 140.377 40.4711 140.52C40.3809 140.815 40.1679 140.984 39.6268 141.357C39.0618 141.747 38.7782 141.942 38.5348 142.061C37.968 142.336 37.6121 142.51 37.1394 142.51Z" fill="#F2F2F2"/>
<path d="M270.221 148.653C269.974 148.302 268.905 148.677 268.708 148.359C268.513 148.042 269.506 147.559 270.073 146.455C270.175 146.256 270.82 145.001 270.343 144.614C269.438 143.88 265.298 146.908 263.849 145.917C263.531 145.7 263.309 145.266 262.347 144.561C261.964 144.28 261.732 144.154 261.508 144.201C261.19 144.268 261.165 144.626 260.824 145.33C260.313 146.387 260.011 146.323 259.713 147.166C259.492 147.791 259.542 148.155 259.282 148.226C258.914 148.326 258.575 147.662 258.108 147.722C257.632 147.782 257.344 148.555 257.254 149.134C257.083 150.219 257.556 150.935 257.819 151.689C258.104 152.507 258.273 153.752 257.615 155.514L251.096 170.978C252.535 167.805 256.702 159.107 258.453 155.874C258.959 154.941 259.517 153.995 260.663 153.621C261.766 153.261 263.281 153.476 265.213 153.084C265.439 153.039 266.065 152.904 266.144 152.594C266.209 152.338 265.84 152.195 265.897 151.955C265.973 151.633 266.697 151.629 267.587 151.257C268.215 150.995 268.605 150.684 268.942 150.416C269.043 150.335 270.55 149.12 270.221 148.653Z" fill="#F2F2F2"/>
<path d="M244.574 156.794C244.298 156.795 244.208 157.345 243.966 157.334C243.725 157.323 243.73 156.774 243.25 156.221C243.163 156.121 242.618 155.492 242.254 155.578C241.566 155.74 242.136 158.325 241.141 158.637C240.922 158.706 240.605 158.673 239.916 158.867C239.643 158.944 239.502 159.003 239.465 159.109C239.412 159.26 239.614 159.374 239.926 159.718C240.394 160.234 240.27 160.341 240.675 160.707C240.976 160.979 241.202 161.063 241.169 161.191C241.121 161.372 240.636 161.32 240.536 161.53C240.434 161.745 240.802 162.086 241.113 162.291C241.696 162.675 242.25 162.686 242.765 162.795C243.325 162.913 244.099 163.202 244.936 163.983L252.07 171.138C250.635 169.628 246.767 165.396 245.388 163.74C244.99 163.262 244.599 162.758 244.712 162.177C244.821 161.617 245.383 161.053 245.712 160.142C245.751 160.035 245.853 159.738 245.695 159.616C245.564 159.515 245.375 159.626 245.251 159.533C245.085 159.409 245.292 159.109 245.332 158.634C245.36 158.299 245.292 158.047 245.232 157.831C245.215 157.766 244.941 156.792 244.574 156.794Z" fill="#F2F2F2"/>
<path d="M250.075 157.833L249.909 156.585L249.985 156.49C250.336 156.052 250.515 155.625 250.517 155.219C250.517 155.155 250.514 155.09 250.51 155.024C250.496 154.764 250.478 154.44 250.679 154.063C250.791 153.852 251.107 153.365 251.582 153.425C251.709 153.44 251.806 153.49 251.879 153.548C251.89 153.533 251.901 153.519 251.913 153.503C252.061 153.313 252.178 153.232 252.291 153.153C252.378 153.093 252.467 153.031 252.607 152.884C252.669 152.819 252.717 152.763 252.757 152.715C252.88 152.571 253.041 152.399 253.324 152.402C253.626 152.414 253.784 152.625 253.889 152.764C254.076 153.012 254.161 153.191 254.217 153.31C254.238 153.354 254.261 153.402 254.273 153.417C254.37 153.538 255.162 153.425 255.46 153.384C256.13 153.29 256.71 153.209 256.948 153.565C257.12 153.819 256.993 154.155 256.559 154.591C256.424 154.727 256.281 154.83 256.153 154.911C256.259 154.964 256.353 155.045 256.392 155.173C256.482 155.476 256.173 155.779 255.474 156.076C255.3 156.15 255.066 156.249 254.739 156.297C254.584 156.319 254.445 156.324 254.326 156.327C254.324 156.385 254.308 156.448 254.266 156.512C254.143 156.702 253.887 156.793 253.502 156.771C253.078 156.752 252.729 156.684 252.421 156.624C252.152 156.573 251.921 156.529 251.739 156.539C251.401 156.562 251.142 156.789 250.836 157.084L250.075 157.833Z" fill="#F2F2F2"/>
<path d="M250.846 150.399L249.453 150.851L249.325 150.813C248.733 150.638 248.197 150.601 247.73 150.702C247.656 150.718 247.582 150.737 247.508 150.757C247.212 150.834 246.845 150.931 246.36 150.864C246.09 150.825 245.45 150.692 245.399 150.29C245.384 150.182 245.416 150.091 245.464 150.016C245.445 150.011 245.425 150.006 245.404 150C245.149 149.928 245.025 149.853 244.907 149.781C244.816 149.726 244.722 149.669 244.517 149.592C244.427 149.558 244.35 149.533 244.285 149.512C244.088 149.449 243.85 149.362 243.782 149.131C243.719 148.881 243.921 148.699 244.054 148.578C244.292 148.363 244.476 148.248 244.598 148.172C244.643 148.145 244.693 148.113 244.708 148.1C244.821 147.99 244.491 147.374 244.368 147.141C244.09 146.62 243.85 146.168 244.198 145.884C244.447 145.68 244.866 145.698 245.476 145.94C245.666 146.016 245.821 146.106 245.946 146.19C245.98 146.09 246.05 145.993 246.187 145.929C246.512 145.779 246.939 145.953 247.457 146.448C247.586 146.57 247.759 146.736 247.897 146.99C247.962 147.11 248.003 147.222 248.037 147.318C248.104 147.306 248.18 147.303 248.265 147.321C248.514 147.372 248.683 147.558 248.756 147.877C248.842 148.227 248.852 148.529 248.862 148.794C248.87 149.027 248.878 149.226 248.936 149.372C249.048 149.641 249.375 149.795 249.791 149.969L250.846 150.399Z" fill="#F2F2F2"/>
<path d="M250.075 146.72L249.909 145.471L249.985 145.377C250.336 144.939 250.515 144.512 250.517 144.106C250.517 144.041 250.514 143.977 250.51 143.911C250.496 143.651 250.478 143.327 250.679 142.949C250.791 142.739 251.107 142.252 251.582 142.312C251.709 142.327 251.806 142.377 251.879 142.434C251.89 142.42 251.901 142.405 251.913 142.39C252.061 142.2 252.178 142.119 252.291 142.04C252.378 141.98 252.467 141.918 252.607 141.771C252.669 141.706 252.717 141.649 252.757 141.602C252.88 141.458 253.041 141.286 253.324 141.289C253.626 141.301 253.784 141.511 253.889 141.651C254.076 141.899 254.161 142.078 254.217 142.197C254.238 142.24 254.261 142.289 254.273 142.304C254.37 142.425 255.162 142.312 255.46 142.271C256.13 142.177 256.71 142.096 256.948 142.451C257.12 142.706 256.993 143.042 256.559 143.478C256.424 143.614 256.281 143.717 256.153 143.798C256.259 143.851 256.353 143.932 256.392 144.06C256.482 144.363 256.173 144.666 255.474 144.963C255.3 145.037 255.066 145.136 254.739 145.183C254.584 145.206 254.445 145.211 254.326 145.214C254.324 145.272 254.308 145.335 254.266 145.399C254.143 145.589 253.887 145.679 253.502 145.658C253.078 145.639 252.729 145.571 252.421 145.511C252.152 145.459 251.921 145.415 251.739 145.426C251.401 145.449 251.142 145.676 250.836 145.971L250.075 146.72Z" fill="#F2F2F2"/>
<path d="M251.592 170.958L251.282 170.794L250.919 170.829C250.913 170.801 250.894 170.736 250.864 170.634C250.702 170.075 250.207 168.376 249.795 165.7C249.507 163.833 249.344 161.912 249.31 159.992C249.277 158.069 249.385 156.612 249.472 155.442C249.537 154.559 249.617 153.719 249.695 152.9C249.902 150.713 250.098 148.646 249.952 146.359C249.92 145.848 249.853 144.785 249.115 143.654C248.687 142.998 248.098 142.416 247.363 141.924L247.82 141.44C248.631 141.984 249.283 142.629 249.758 143.358C250.576 144.612 250.65 145.77 250.685 146.326C250.833 148.654 250.635 150.74 250.425 152.949C250.348 153.765 250.269 154.602 250.203 155.481C250.117 156.64 250.01 158.084 250.044 159.982C250.077 161.88 250.238 163.777 250.522 165.621C250.929 168.263 251.416 169.937 251.577 170.487C251.662 170.78 251.68 170.842 251.592 170.958Z" fill="#F2F2F2"/>
<path d="M246.018 142.905C245.988 142.905 245.958 142.904 245.927 142.902C245.302 142.874 244.724 142.559 244.208 141.967C243.966 141.689 243.842 141.371 243.595 140.737C243.556 140.639 243.37 140.144 243.257 139.462C243.183 139.016 243.192 138.83 243.297 138.665C243.414 138.482 243.602 138.354 243.814 138.268C243.805 138.209 243.812 138.148 243.843 138.086C243.967 137.829 244.3 137.862 244.48 137.879C244.57 137.888 244.684 137.901 244.806 137.896C244.999 137.888 245.103 137.839 245.259 137.767C245.409 137.698 245.596 137.612 245.873 137.564C246.418 137.468 246.876 137.598 247.026 137.641C247.819 137.864 248.21 138.383 248.663 138.984C248.753 139.104 249.063 139.543 249.267 140.145C249.415 140.579 249.394 140.772 249.35 140.916C249.26 141.21 249.047 141.379 248.505 141.752C247.94 142.142 247.657 142.337 247.413 142.456C246.847 142.732 246.491 142.905 246.018 142.905Z" fill="#F2F2F2"/>
<path d="M273.673 170.399C273.673 170.582 273.497 170.731 273.279 170.731H0V170.067H273.279C273.497 170.067 273.673 170.215 273.673 170.399Z" fill="#E6E6E6"/>
<path d="M232.496 170.373C232.496 185.434 234.374 196.457 214.894 197.643C193.977 198.916 197.292 185.434 197.292 170.373C197.292 155.313 194.476 140.338 214.894 143.104C224.492 144.405 232.496 155.313 232.496 170.373Z" fill="#3F3D56"/>
<path d="M202.925 189.343C204.48 189.343 205.741 180.85 205.741 170.373C205.741 159.897 204.48 151.404 202.925 151.404C201.369 151.404 200.108 159.897 200.108 170.373C200.108 180.85 201.369 189.343 202.925 189.343Z" fill="#E6E6E6"/>
<path d="M91.5092 146.121C91.5092 159.412 93.1661 169.139 75.9756 170.186C57.5163 171.309 60.4421 159.412 60.4421 146.121C60.4421 132.831 57.9567 119.615 75.9756 122.056C84.4456 123.204 91.5092 132.831 91.5092 146.121Z" fill="#3F3D56"/>
<path d="M65.4128 162.862C66.7854 162.862 67.8982 155.367 67.8982 146.121C67.8982 136.876 66.7854 129.38 65.4128 129.38C64.0402 129.38 62.9274 136.876 62.9274 146.121C62.9274 155.367 64.0402 162.862 65.4128 162.862Z" fill="#E6E6E6"/>
<path d="M118.2 170.176C118.2 185.236 120.077 196.259 100.597 197.445C79.68 198.718 82.9954 185.236 82.9954 170.176C82.9954 155.115 80.179 140.14 100.597 142.907C110.195 144.207 118.2 155.115 118.2 170.176Z" fill="#3F3D56"/>
<path d="M88.628 189.146C90.1835 189.146 91.4444 180.653 91.4444 170.176C91.4444 159.699 90.1835 151.206 88.628 151.206C87.0726 151.206 85.8117 159.699 85.8117 170.176C85.8117 180.653 87.0726 189.146 88.628 189.146Z" fill="#E6E6E6"/>
<path d="M62.5769 114.254V123.602L59.5259 127.889L60.4647 142.907L61.2242 143.302L60.6994 128.086C66.0472 126.41 67.796 129.498 67.2708 135.595L66.332 145.871L81.3525 153.775L83.2301 137.571L90.2709 134.805L98.0159 162.272H227.778C233.127 162.272 237.402 158.524 237.185 154.024L235.547 119.985L231.129 116.265L227.035 76.4022C226.015 66.4613 216.003 58.8951 204.155 59.1101L122.982 60.583C118.578 60.6629 114.227 61.4094 110.137 62.7867L90.5056 69.3984L77.8339 80.0674L75.9545 105.757L71.1633 105.407C67.7167 105.154 64.5734 107.072 63.785 109.908L62.5769 114.254Z" fill="#E6E6E6"/>
<path d="M104.587 151.206C107.18 151.206 109.281 149.437 109.281 147.254C109.281 145.071 107.18 143.302 104.587 143.302C101.995 143.302 99.8934 145.071 99.8934 147.254C99.8934 149.437 101.995 151.206 104.587 151.206Z" fill="#3F3D56"/>
<path d="M115.383 151.206C117.976 151.206 120.077 149.437 120.077 147.254C120.077 145.071 117.976 143.302 115.383 143.302C112.791 143.302 110.689 145.071 110.689 147.254C110.689 149.437 112.791 151.206 115.383 151.206Z" fill="#3F3D56"/>
<path d="M220.527 151.206C223.119 151.206 225.221 149.437 225.221 147.254C225.221 145.071 223.119 143.302 220.527 143.302C217.934 143.302 215.833 145.071 215.833 147.254C215.833 149.437 217.934 151.206 220.527 151.206Z" fill="#3F3D56"/>
<path d="M231.323 151.206C233.915 151.206 236.017 149.437 236.017 147.254C236.017 145.071 233.915 143.302 231.323 143.302C228.73 143.302 226.629 145.071 226.629 147.254C226.629 149.437 228.73 151.206 231.323 151.206Z" fill="#3F3D56"/>
<path d="M223.998 110.133H113.647C112.803 110.133 112.018 109.85 111.436 109.336C110.854 108.822 110.555 108.148 110.595 107.438L112.207 78.7366C112.283 77.3797 113.607 76.3029 115.22 76.2855L219.417 75.1562C220.956 75.1439 222.29 76.1045 222.487 77.4017L227.029 107.233C227.14 107.966 226.872 108.704 226.292 109.259C225.712 109.814 224.876 110.133 223.998 110.133Z" fill="white"/>
<path d="M98.2395 108.721H91.0795C90.2301 108.721 89.4121 108.42 88.8357 107.895C88.259 107.37 87.9666 106.66 88.0333 105.946L90.0942 83.9253C90.2072 82.7161 91.2821 81.7516 92.7082 81.5803L100.107 80.6903C101.033 80.5795 101.956 80.8254 102.637 81.3665C103.318 81.9079 103.663 82.6686 103.584 83.454L101.284 106.365C101.15 107.708 99.8405 108.721 98.2395 108.721Z" fill="white"/>
<path d="M81.7738 108.162C81.6997 108.162 81.6252 108.159 81.5507 108.155L80.7101 108.105C79.8797 108.054 79.1268 107.732 78.5905 107.196C78.0542 106.659 77.8046 105.98 77.8873 105.282L80.2001 85.809C80.3372 84.6562 81.3807 83.718 82.7384 83.5273C83.6637 83.3965 84.5933 83.6265 85.2889 84.156C85.9847 84.6848 86.3496 85.4401 86.2903 86.2278L84.8179 105.752C84.7659 106.442 84.3969 107.072 83.7785 107.526C83.2168 107.94 82.512 108.162 81.7738 108.162Z" fill="white"/>
<path d="M70.1313 147.892L68.9137 125.518C68.9137 125.518 66.0973 122.356 64.2198 123.146C62.3422 123.937 59.5536 128.332 59.5536 128.332C59.5536 128.332 64.9958 128.032 64.8425 132.901C64.6892 137.769 65.7749 145.645 65.7749 145.645L70.1313 147.892Z" fill="#CCCCCC"/>
<path d="M81.4669 153.738L82.0566 137.046L88.0275 131.108C88.0275 131.108 96.0071 129.656 95.838 137.27C95.6689 144.883 98.2506 162.469 98.2506 162.469L92.4156 159.384C92.4156 159.384 90.975 140.535 86.7505 138.559C82.526 136.583 83.9342 138.164 83.9342 138.164L81.4669 153.738Z" fill="#CCCCCC"/>
<path d="M75.2486 110.947L70.6224 108.721H71.1275C71.8491 108.721 72.4341 108.229 72.4341 107.621V97.9652C72.4341 97.3577 71.8491 96.8652 71.1275 96.8652H66.2304C65.5088 96.8652 64.9238 97.3577 64.9238 97.9652V107.621C64.9238 108.229 65.5088 108.721 66.2304 108.721H68.7304L74.7829 111.633L75.2486 110.947Z" fill="#3F3D56"/>
<path d="M81.4987 125.416L77.8899 124.542C77.0179 124.331 76.1077 124.755 75.8569 125.489C75.6062 126.223 76.1098 126.989 76.9818 127.201L80.5907 128.074C81.4627 128.285 82.3728 127.861 82.6236 127.127C82.8743 126.393 82.3707 125.627 81.4987 125.416Z" fill="#3F3D56"/>
<path d="M228.52 97.3591L213.089 96.7983C212.183 96.7654 211.416 97.3574 211.377 98.1206C211.338 98.8838 212.041 99.5292 212.947 99.5622L228.378 100.123C229.285 100.156 230.051 99.5639 230.091 98.8007C230.13 98.0375 229.427 97.3921 228.52 97.3591Z" fill="#3F3D56"/>
<path d="M243.071 123.443L227.64 122.882C226.734 122.849 225.967 123.441 225.928 124.204C225.889 124.967 226.592 125.613 227.498 125.646L242.929 126.207C243.836 126.239 244.602 125.647 244.642 124.884C244.681 124.121 243.978 123.476 243.071 123.443Z" fill="#3F3D56"/>
<path d="M180.159 153.577C199.861 153.577 215.833 140.13 215.833 123.542C215.833 106.953 199.861 93.5059 180.159 93.5059C160.457 93.5059 144.485 106.953 144.485 123.542C144.485 140.13 160.457 153.577 180.159 153.577Z" fill="#3F3D56"/>
<path d="M180.159 141.326C191.825 141.326 201.282 133.364 201.282 123.542C201.282 113.72 191.825 105.757 180.159 105.757C168.494 105.757 159.037 113.72 159.037 123.542C159.037 133.364 168.494 141.326 180.159 141.326Z" fill="#E6E6E6"/>
<path d="M227.423 63.8919C227.602 65.6451 228.822 66.9883 230.147 66.8919C231.473 66.7955 232.401 65.2963 232.221 63.5424C232.161 62.8409 231.902 62.1619 231.466 61.5621L230.593 54.1415L226.466 54.5603L227.764 61.8312C227.457 62.4853 227.339 63.1919 227.423 63.8919Z" fill="#FFB6B6"/>
<path d="M215.478 20.9359C215.478 20.9359 220.031 19.8559 221.782 21.6844C223.532 23.513 230.062 41.4699 230.062 41.4699L232.089 60.796L225.624 59.1489L223.108 43.9076L218.884 36.0034L215.478 20.9359Z" fill="#476969"/>
<path d="M213.991 9.31024H200.112V20.3913H213.991V9.31024Z" fill="#2F2E41"/>
<path d="M206.905 14.9557C210.642 14.9557 213.672 12.4048 213.672 9.25817C213.672 6.11149 210.642 3.56061 206.905 3.56061C203.167 3.56061 200.138 6.11149 200.138 9.25817C200.138 12.4048 203.167 14.9557 206.905 14.9557Z" fill="#FFB6B6"/>
<path d="M203.701 0.0424557C199.376 0.606075 199.583 1.95918 198.198 2.6616C195.758 3.89912 194.795 7.4727 196.084 9.83086C196.428 10.4609 197.154 11.3205 196.802 12.2485C196.531 12.961 195.752 13.3813 195.605 13.4574C194.407 14.0803 195.19 13.3392 194.648 13.8603C194.05 14.4355 194.976 15.248 194.409 16.278C193.906 17.1912 192.868 17.1141 192.734 17.6883C192.502 18.6771 195.164 20.6653 197.998 20.5089C200.521 20.3697 202.396 18.5738 203.023 16.8824C203.444 15.7494 203.625 13.8006 202.545 12.853C202.393 12.7201 201.979 12.3982 201.588 11.8456C201.278 11.4083 200.87 10.8326 201.109 10.4353C201.363 10.0119 202.085 10.2348 202.545 9.83086C203.168 9.2831 202.427 8.35766 202.545 7.41318C202.743 5.81389 205.435 3.89038 208.288 4.18961C211.524 4.52906 212.711 7.4923 212.834 7.81613C213.089 8.48729 213.084 9.13662 213.074 10.4353C213.059 12.2989 213.05 13.467 212.356 14.6662C211.357 16.391 210.085 16.2046 209.723 17.4868C209.159 19.486 211.813 21.4937 212.116 21.7178C214.366 23.3785 217.765 23.8779 218.338 23.1281C218.854 22.4524 216.588 21.4013 216.663 19.3001C216.728 17.4792 218.478 16.9241 218.099 15.6736C217.681 14.297 215.451 14.611 214.509 13.0544C213.63 11.6015 215.25 10.7953 214.988 7.81613C214.932 7.18591 214.697 5.37718 213.313 3.58519C212.703 2.79573 212.083 1.99281 210.92 1.57046C209.618 1.09765 205.989 -0.255672 203.701 0.0424557Z" fill="#2F2E41"/>
<path d="M200.83 5.07928C201.005 6.32688 203.231 6.93828 204.18 7.09401C204.582 7.15997 205.941 7.38284 207.291 6.89253C207.79 6.7113 207.971 6.54741 208.487 6.48959C209.186 6.41133 209.537 6.63494 210.641 6.89253C211.868 7.17898 212.482 7.32222 212.795 7.09401C213.306 6.72097 212.913 5.5006 212.316 4.67633C211.212 3.15222 209.191 2.68027 208.248 2.46013C207.171 2.20863 204.985 1.69826 202.984 2.6616C202.716 2.7904 200.652 3.81171 200.83 5.07928Z" fill="#2F2E41"/>
<path d="M233.77 117.178L237.224 117.247L239.149 104.182L234.052 104.08L233.77 117.178Z" fill="#FFB6B6"/>
<path d="M245.619 123.245C245.619 123.736 245.205 124.134 244.695 124.134H237.839C237.839 124.134 237.164 121.851 234.414 120.868L234.224 124.134H230.687L231.116 118.883C231.116 118.883 230.17 116.073 232.134 114.637C234.099 113.201 232.508 113.401 232.508 113.401L233.281 110.151L238.625 110.68L238.664 115.782L241.258 120.846L245.062 122.428C245.4 122.569 245.619 122.89 245.619 123.245Z" fill="#2F2E41"/>
<path d="M218.067 91.5894L221.444 90.9772L219.694 77.8953L214.709 78.7983L218.067 91.5894Z" fill="#FFB6B6"/>
<path d="M231.271 95.1596C231.407 95.6373 231.115 96.1059 230.618 96.2063L223.952 97.5538C223.952 97.5538 222.663 95.4662 219.716 95.0513L220.437 98.2644L216.998 98.9595L215.959 93.7689C215.959 93.7689 214.26 91.2229 215.772 89.4402C217.284 87.6576 215.792 88.1647 215.792 88.1647L215.643 84.8524L220.986 84.3165L222.439 89.2699L226.365 93.6846L230.502 94.4754C230.871 94.5458 231.173 94.8147 231.271 95.1596Z" fill="#2F2E41"/>
<path d="M211.608 15.6503L203.159 16.0455L200.812 19.9976L191.894 23.9497L193.302 43.4377L190.084 53.2396L190.486 55.9613L221.935 55.1709L220.057 25.9257L220.527 21.1832L214.425 19.6024L211.608 15.6503Z" fill="#476969"/>
<path d="M190.72 52.2069C190.72 52.2069 183.68 62.6814 190.72 64.1626C193.853 64.8216 197.171 65.2656 199.889 65.5555C203.144 65.9026 206.14 64.0214 206.68 61.2966L214.19 83.0329L221.7 81.4521L223.108 70.1374L232.234 77.8206L231.088 108.721L239.537 108.326L248.455 74.7336C248.455 74.7336 248.925 72.3624 241.884 69.2007C234.843 66.0391 222.17 55.7637 222.17 55.7637L200.578 50.2308L190.72 52.2069Z" fill="#2F2E41"/>
<path d="M205.506 59.123L193.302 52.4045L208.323 38.9675C208.323 38.9675 216.772 36.2011 219.119 46.8716C221.466 57.5422 222.874 67.0271 222.874 67.0271L205.506 59.123Z" fill="#2F2E41"/>
<path d="M180.326 39.0655L180.861 36.0034C181.25 33.7718 179.492 31.8243 177.108 31.3448V30.0753C177.108 28.984 176.057 28.0993 174.761 28.0993C173.465 28.0993 172.414 28.984 172.414 30.0753V31.7688L163.496 33.3615V31.2609C163.496 30.1696 162.445 29.2849 161.149 29.2849C159.853 29.2849 158.802 30.1696 158.802 31.2609V33.2574L157.915 33.0626C155.268 32.4811 153.176 35.0388 154.823 36.8788C154.844 36.9026 154.866 36.9264 154.888 36.9502C157.086 39.33 157.714 41.4453 157.714 41.4453L156.144 48.5846L157.932 63.4276C158.163 65.3406 160.118 66.7741 162.401 66.7029L179.765 66.1614C182.045 66.0903 183.871 64.5422 183.933 62.6215C184.154 55.7802 184.18 40.8907 180.326 39.0655Z" fill="#3F3D56"/>
<path d="M164.78 64.7128C164.536 64.7128 164.331 64.5547 164.312 64.3471L163.37 53.7703C163.351 53.5526 163.544 53.3629 163.803 53.3467C164.059 53.3297 164.287 53.4936 164.306 53.7113L165.248 64.288C165.268 64.5057 165.074 64.6954 164.815 64.7116C164.803 64.7124 164.791 64.7128 164.78 64.7128Z" fill="#FFB6B6"/>
<path d="M157.713 41.8407C157.484 41.8407 157.284 41.6992 157.25 41.5028C157.212 41.2868 157.389 41.0861 157.646 41.0545L180.331 38.2552C180.588 38.224 180.826 38.373 180.863 38.5889C180.901 38.8048 180.724 39.0055 180.467 39.0372L157.782 41.8364C157.759 41.8393 157.736 41.8407 157.713 41.8407Z" fill="#FFB6B6"/>
<path d="M24.4537 156.35C24.2956 156.125 23.6114 156.366 23.4857 156.162C23.3603 155.959 23.996 155.65 24.3592 154.943C24.4246 154.816 24.8374 154.013 24.5318 153.765C23.9527 153.295 21.3027 155.233 20.3753 154.599C20.1717 154.46 20.0295 154.182 19.4135 153.731C19.1685 153.551 19.0203 153.47 18.8769 153.5C18.6734 153.543 18.6573 153.772 18.4391 154.223C18.1119 154.899 17.9183 154.859 17.7276 155.398C17.5861 155.799 17.6184 156.031 17.4519 156.077C17.2162 156.141 16.9993 155.716 16.7006 155.754C16.3958 155.793 16.2115 156.288 16.1533 156.658C16.0441 157.353 16.3472 157.811 16.5152 158.293C16.6977 158.817 16.8061 159.614 16.3845 160.742L12.2117 170.641C13.1329 168.61 15.8003 163.042 16.9211 160.973C17.2447 160.375 17.602 159.769 18.3355 159.53C19.0418 159.3 20.0117 159.438 21.2483 159.187C21.3927 159.157 21.7934 159.072 21.8439 158.873C21.8856 158.709 21.6499 158.617 21.6861 158.464C21.7347 158.258 22.1982 158.255 22.7679 158.017C23.1695 157.85 23.4198 157.65 23.635 157.479C23.6999 157.427 24.6643 156.649 24.4537 156.35Z" fill="#F2F2F2"/>
<path d="M8.03684 161.561C7.86033 161.562 7.80306 161.914 7.64799 161.907C7.49348 161.9 7.49656 161.548 7.1894 161.194C7.134 161.13 6.78494 160.728 6.55233 160.783C6.11142 160.887 6.47675 162.541 5.83939 162.741C5.69952 162.785 5.49649 162.764 5.05573 162.888C4.88039 162.938 4.7904 162.975 4.76659 163.043C4.73282 163.14 4.86183 163.213 5.06169 163.433C5.36142 163.763 5.28178 163.831 5.54123 164.066C5.73383 164.24 5.87888 164.294 5.85727 164.376C5.82669 164.492 5.51648 164.459 5.45248 164.593C5.38716 164.73 5.62229 164.949 5.82135 165.08C6.1949 165.326 6.54964 165.333 6.87916 165.402C7.23727 165.478 7.73304 165.663 8.26896 166.163L12.8353 170.743C11.917 169.777 9.44087 167.068 8.5581 166.008C8.30327 165.702 8.05317 165.379 8.12544 165.007C8.19501 164.649 8.55499 164.288 8.76557 163.704C8.79017 163.636 8.85576 163.446 8.75462 163.368C8.671 163.303 8.5496 163.374 8.47047 163.315C8.36433 163.235 8.49661 163.043 8.52234 162.739C8.54048 162.524 8.49643 162.363 8.45855 162.225C8.44713 162.183 8.27181 161.56 8.03684 161.561Z" fill="#F2F2F2"/>
<path d="M11.5582 162.227L11.4518 161.427L11.5004 161.367C11.7253 161.087 11.8399 160.813 11.8412 160.553C11.8415 160.512 11.8392 160.471 11.8369 160.429C11.8277 160.262 11.8163 160.055 11.9446 159.813C12.0166 159.678 12.2187 159.366 12.5226 159.405C12.6045 159.415 12.6663 159.446 12.7133 159.483L12.7349 159.455C12.8295 159.333 12.9045 159.281 12.9767 159.231C13.0321 159.192 13.0894 159.153 13.1793 159.058C13.2187 159.017 13.2494 158.981 13.2753 158.95C13.3539 158.858 13.4566 158.748 13.6377 158.75C13.8311 158.758 13.9324 158.892 13.9996 158.982C14.1194 159.141 14.1738 159.255 14.2097 159.331C14.2228 159.359 14.2377 159.39 14.2453 159.4C14.3076 159.477 14.8144 159.405 15.0053 159.379C15.4341 159.319 15.8052 159.266 15.958 159.494C16.0676 159.657 15.9862 159.872 15.7089 160.151C15.6225 160.238 15.5306 160.304 15.449 160.356C15.5166 160.39 15.5771 160.442 15.6016 160.524C15.6594 160.718 15.4616 160.912 15.014 161.102C14.9028 161.149 14.7532 161.212 14.5435 161.243C14.4447 161.257 14.3557 161.261 14.2797 161.263C14.278 161.3 14.2677 161.34 14.2409 161.381C14.1623 161.503 13.9987 161.56 13.752 161.547C13.4807 161.535 13.2572 161.491 13.0601 161.453C12.888 161.42 12.7397 161.391 12.6233 161.398C12.4074 161.413 12.241 161.558 12.0457 161.747L11.5582 162.227Z" fill="#F2F2F2"/>
<path d="M12.0515 157.468L11.1602 157.757L11.0783 157.733C10.6994 157.621 10.3559 157.597 10.0572 157.662C10.0097 157.672 9.96281 157.684 9.91507 157.697C9.72585 157.746 9.49065 157.808 9.18052 157.765C9.00752 157.741 8.59798 157.655 8.56524 157.398C8.55557 157.329 8.57623 157.27 8.60688 157.223L8.5686 157.212C8.40492 157.166 8.32605 157.118 8.2501 157.072C8.19169 157.037 8.13149 157 8.00051 156.951C7.94306 156.929 7.8936 156.914 7.852 156.9C7.72608 156.86 7.57367 156.804 7.52996 156.656C7.48977 156.496 7.61882 156.38 7.70421 156.302C7.85648 156.164 7.97439 156.091 8.05262 156.043C8.08123 156.025 8.11336 156.005 8.12253 155.996C8.1954 155.926 7.98394 155.531 7.90537 155.383C7.72743 155.049 7.57345 154.76 7.79628 154.577C7.9556 154.447 8.22366 154.458 8.61457 154.614C8.73625 154.662 8.83539 154.72 8.9155 154.773C8.93737 154.71 8.98188 154.647 9.06966 154.606C9.2776 154.51 9.5508 154.622 9.88249 154.938C9.96522 155.017 10.0759 155.123 10.1641 155.286C10.2056 155.363 10.2321 155.434 10.2536 155.496C10.2966 155.488 10.3454 155.486 10.3996 155.497C10.5592 155.53 10.6672 155.649 10.7138 155.853C10.7689 156.077 10.7755 156.27 10.7816 156.441C10.7871 156.589 10.7924 156.717 10.8294 156.81C10.901 156.982 11.1104 157.081 11.3768 157.192L12.0515 157.468Z" fill="#F2F2F2"/>
<path d="M11.5582 155.113L11.4518 154.314L11.5004 154.253C11.7253 153.973 11.8399 153.699 11.8412 153.439C11.8415 153.398 11.8392 153.357 11.8369 153.315C11.8277 153.148 11.8163 152.941 11.9446 152.699C12.0166 152.565 12.2187 152.253 12.5226 152.291C12.6045 152.301 12.6663 152.333 12.7133 152.37L12.7349 152.341C12.8295 152.219 12.9045 152.167 12.9767 152.117C13.0321 152.079 13.0894 152.039 13.1793 151.945C13.2187 151.903 13.2494 151.867 13.2753 151.837C13.3539 151.744 13.4566 151.634 13.6377 151.636C13.8311 151.644 13.9324 151.779 13.9996 151.868C14.1194 152.027 14.1738 152.142 14.2097 152.218C14.2228 152.245 14.2377 152.277 14.2453 152.286C14.3076 152.363 14.8144 152.291 15.0053 152.265C15.4341 152.205 15.8052 152.153 15.958 152.38C16.0676 152.543 15.9862 152.759 15.7089 153.038C15.6225 153.125 15.5306 153.191 15.449 153.242C15.5166 153.276 15.5771 153.328 15.6016 153.41C15.6594 153.604 15.4616 153.798 15.014 153.988C14.9028 154.035 14.7532 154.099 14.5435 154.129C14.4447 154.143 14.3557 154.147 14.2797 154.149C14.278 154.186 14.2677 154.226 14.2409 154.267C14.1623 154.389 13.9987 154.447 13.752 154.433C13.4807 154.421 13.2572 154.377 13.0601 154.339C12.888 154.306 12.7397 154.278 12.6233 154.284C12.4074 154.299 12.241 154.444 12.0457 154.633L11.5582 155.113Z" fill="#F2F2F2"/>
<path d="M12.5296 170.628L12.3306 170.523L12.0987 170.545C12.095 170.527 12.0824 170.485 12.0634 170.42C11.9596 170.063 11.643 168.975 11.379 167.262C11.1947 166.067 11.0905 164.838 11.0689 163.608C11.0474 162.377 11.1166 161.445 11.1721 160.696C11.214 160.131 11.2649 159.593 11.3148 159.069C11.4478 157.669 11.5731 156.346 11.4799 154.882C11.4592 154.555 11.4159 153.874 10.9438 153.15C10.6699 152.73 10.2926 152.358 9.82233 152.043L10.1148 151.733C10.6339 152.081 11.0513 152.494 11.3554 152.961C11.8789 153.763 11.9261 154.505 11.9488 154.861C12.0437 156.351 11.9169 157.686 11.7826 159.1C11.7331 159.622 11.6822 160.158 11.6405 160.721C11.5855 161.463 11.517 162.387 11.5383 163.602C11.5594 164.817 11.6625 166.031 11.8443 167.211C12.1051 168.903 12.417 169.974 12.5195 170.326C12.574 170.514 12.5855 170.553 12.5296 170.628Z" fill="#F2F2F2"/>
<path d="M8.96143 152.671C8.94217 152.671 8.92269 152.67 8.90298 152.669C8.50327 152.651 8.13312 152.45 7.80262 152.071C7.64768 151.892 7.56838 151.689 7.41024 151.283C7.38571 151.221 7.26653 150.903 7.19411 150.467C7.14666 150.182 7.15262 150.062 7.21978 149.957C7.29426 149.84 7.41482 149.758 7.5505 149.703C7.54454 149.665 7.54936 149.626 7.56884 149.586C7.64883 149.421 7.86152 149.443 7.97657 149.453C8.03479 149.46 8.10745 149.468 8.18583 149.464C8.30914 149.459 8.37537 149.428 8.47576 149.382C8.57179 149.338 8.6912 149.282 8.86837 149.252C9.21767 149.191 9.51035 149.274 9.60684 149.301C10.1145 149.444 10.3648 149.776 10.6545 150.161C10.7122 150.238 10.9105 150.519 11.0414 150.904C11.1358 151.182 11.1225 151.306 11.0941 151.397C11.0363 151.586 10.9 151.694 10.5536 151.933C10.192 152.182 10.0104 152.307 9.85459 152.384C9.49178 152.56 9.26396 152.671 8.96143 152.671Z" fill="#F2F2F2"/>
<path d="M286.942 111.325L287.157 97.2027L280.719 95.7115L280.913 111.327L279.432 122.866L279.47 122.879C278.849 123.404 278.346 124.244 278.131 125.236C277.74 127.046 278.457 128.672 279.734 128.868C281.01 129.063 282.363 127.755 282.754 125.944C282.915 125.201 282.886 124.491 282.711 123.896L282.768 123.914L286.942 111.325Z" fill="#A0616A"/>
<path d="M275.232 78.1281C275.232 78.1281 278.154 76.2468 280.216 78.9964C282.279 81.7461 287.951 95.639 287.951 95.639C287.951 95.639 289.592 102.007 289.201 102.947C288.811 103.888 288.295 112.167 288.295 112.167L280.236 110.936L280.431 102.947L272.752 92.6266L275.232 78.1281Z" fill="#CCCCCC"/>
<path d="M221.259 72.9991L232.553 83.4422L238.467 80.831L225.663 69.5324L217.389 60.2491L217.351 60.2624C217.378 59.5213 217.066 58.6184 216.418 57.7702C215.236 56.2224 213.394 55.4467 212.302 56.0374C211.211 56.6282 211.284 58.3619 212.466 59.9096C212.951 60.545 213.547 61.0473 214.158 61.3814L214.101 61.4012L221.259 72.9991Z" fill="#A0616A"/>
<path d="M257.379 90.5255C257.379 90.5255 256.769 93.5797 253.032 92.7561C249.296 91.9325 233.886 85.0412 233.886 85.0412C233.886 85.0412 227.524 81.3312 227.047 80.4195C226.569 79.5077 220.233 73.1617 220.233 73.1617L227.12 69.4287L233.455 75.3784L247.435 78.5056L257.379 90.5255Z" fill="#CCCCCC"/>
<path d="M259.519 70.1446C264.472 70.1446 268.488 66.7637 268.488 62.5932C268.488 58.4226 264.472 55.0417 259.519 55.0417C254.565 55.0417 250.55 58.4226 250.55 62.5932C250.55 66.7637 254.565 70.1446 259.519 70.1446Z" fill="#A0616A"/>
<path d="M275.252 194.882L269.686 194.882L267.038 176.804L275.254 176.804L275.252 194.882Z" fill="#A0616A"/>
<path d="M256.181 194.776C256.007 195.022 255.916 195.815 255.916 196.101C255.916 196.979 256.762 197.691 257.805 197.691H275.044C275.756 197.691 276.333 197.206 276.333 196.606V196.002C276.333 196.002 277.186 194.186 275.43 191.947C275.43 191.947 273.248 193.7 269.987 190.955L269.026 189.488L262.065 193.774L258.207 194.174C257.363 194.261 256.615 194.16 256.181 194.776Z" fill="#2F2E41"/>
<path d="M259.293 194.882L253.727 194.882L251.079 176.804L259.294 176.804L259.293 194.882Z" fill="#A0616A"/>
<path d="M240.222 194.776C240.048 195.022 239.957 195.815 239.957 196.101C239.957 196.979 240.803 197.691 241.846 197.691H259.085C259.797 197.691 260.374 197.206 260.374 196.606V196.002C260.374 196.002 261.227 194.186 259.471 191.947C259.471 191.947 257.289 193.7 254.028 190.955L253.066 189.488L246.106 193.774L242.248 194.174C241.404 194.261 240.656 194.16 240.222 194.776Z" fill="#2F2E41"/>
<path d="M279.2 116.428L243.057 118.009L251.037 186.775L259.017 186.379L261.833 144.883L263.007 130.062L267.793 185.242L275.915 185.194L279.2 116.428Z" fill="#2F2E41"/>
<path d="M268.493 72.1648L254.805 71.7696L245.639 79.4434V104.583L242.06 120.38C242.06 120.38 266.133 118.404 270.853 122.356C275.574 126.308 284.07 123.542 284.07 123.542L279.822 102.641L277.934 78.4881L268.493 72.1648Z" fill="#CCCCCC"/>
<path d="M263.467 69.9912L255.837 68.4735L254.66 64.5786C254.66 64.5786 254.631 62.7427 253.602 62.5379C252.572 62.3331 250.757 61.0568 250.757 61.0568L252.516 58.6612C252.516 58.6612 248.276 58.2755 249.549 57.6134C250.821 56.9514 251.006 57.2497 251.186 55.6512C251.56 52.3439 263.58 52.8267 264.513 54.6413C264.513 54.6413 266.057 54.9485 266.844 56.02C267.63 57.0916 268.023 57.6274 268.538 57.7298C269.053 57.8322 269.324 58.8014 269.324 58.8014C269.324 58.8014 271.14 60.0777 270.504 60.4087C269.867 60.7397 269.381 62.4733 269.381 62.4733C269.381 62.4733 271.075 64.183 267.285 68.0051L265.266 70.7399L263.467 69.9912Z" fill="#2F2E41"/>
<path d="M273.265 81.0971L273.8 78.035C274.19 75.8034 272.432 73.8558 270.047 73.3764V72.1069C270.047 71.0156 268.997 70.1309 267.7 70.1309C266.404 70.1309 265.353 71.0156 265.353 72.1069V73.8003L256.435 75.3931V73.2925C256.435 72.2012 255.384 71.3165 254.088 71.3165C252.792 71.3165 251.741 72.2012 251.741 73.2925V75.2889L250.855 75.0942C248.207 74.5126 246.115 77.0704 247.762 78.9104C247.783 78.9341 247.805 78.958 247.827 78.9818C250.025 81.3615 250.653 83.4769 250.653 83.4769L249.083 90.6162L250.871 105.459C251.102 107.372 253.058 108.806 255.34 108.734L272.704 108.193C274.984 108.122 276.81 106.574 276.872 104.653C277.093 97.8118 277.119 82.9222 273.265 81.0971Z" fill="#3F3D56"/>
<path d="M257.719 106.744C257.476 106.744 257.27 106.586 257.251 106.379L256.309 95.8019C256.29 95.5842 256.484 95.3945 256.742 95.3783C256.998 95.3613 257.226 95.5251 257.245 95.7428L258.187 106.32C258.207 106.537 258.013 106.727 257.755 106.743C257.743 106.744 257.731 106.744 257.719 106.744Z" fill="#FFB6B6"/>
<path d="M250.652 83.8722C250.423 83.8722 250.223 83.7307 250.189 83.5343C250.151 83.3183 250.329 83.1176 250.585 83.086L273.27 80.2867C273.527 80.2555 273.765 80.4045 273.803 80.6204C273.84 80.8363 273.663 81.037 273.406 81.0687L250.721 83.8679C250.698 83.8708 250.675 83.8722 250.652 83.8722Z" fill="#FFB6B6"/>
<path d="M251.688 107.377L242.823 89.3563L245.17 90.1467L254.611 106.114L251.688 107.377Z" fill="#3F3D56"/>
<path d="M307 197.668C307 197.851 306.823 198 306.606 198H33.3267V197.336H306.606C306.823 197.336 307 197.485 307 197.668Z" fill="#E6E6E6"/>
<path d="M210.135 56.7795C211.657 57.9853 213.63 58.3013 214.541 57.4855C215.452 56.6697 214.957 55.0311 213.434 53.8251C212.833 53.3363 212.102 52.9757 211.302 52.7735L204.775 47.733L202.031 50.3622L208.757 55.0521C209.046 55.7122 209.518 56.3046 210.135 56.7795Z" fill="#FFB6B6"/>
<path d="M204.549 30.665C204.549 30.665 196.592 22.3187 193.537 22.9617C189.782 23.7521 190.72 26.9137 186.836 35.3696C185.863 37.4873 184.842 39.5398 186.805 41.0965L192.218 45.3887L203.757 53.5806L208.4 49.489L199.177 39.4757L204.549 30.665Z" fill="#476969"/>
</g>
<defs>
<clipPath id="clip0_214_485">
<rect width="307" height="198" fill="white"/>
</clipPath>
</defs>
</svg>
