<svg width="26" height="19" viewBox="0 0 26 19" xmlns="http://www.w3.org/2000/svg">
<path d="M21.75 7H21.125L16.8758 1.68828C16.6415 1.39554 16.3444 1.15922 16.0065 0.99681C15.6685 0.834397 15.2984 0.750047 14.9234 0.75H6.56758C5.54531 0.75 4.62617 1.37227 4.24648 2.32148L2.375 7.08828C1.29844 7.36719 0.5 8.33633 0.5 9.5V13.875C0.5 14.2203 0.779687 14.5 1.125 14.5H3C3 16.5711 4.67891 18.25 6.75 18.25C8.82109 18.25 10.5 16.5711 10.5 14.5H15.5C15.5 16.5711 17.1789 18.25 19.25 18.25C21.3211 18.25 23 16.5711 23 14.5H24.875C25.2203 14.5 25.5 14.2203 25.5 13.875V10.75C25.5 8.67891 23.8211 7 21.75 7ZM6.75 16.375C5.71602 16.375 4.875 15.534 4.875 14.5C4.875 13.466 5.71602 12.625 6.75 12.625C7.78398 12.625 8.625 13.466 8.625 14.5C8.625 15.534 7.78398 16.375 6.75 16.375ZM9.5625 7H5.06758L6.56758 3.25H9.5625V7ZM11.4375 7V3.25H14.9234L17.9234 7H11.4375ZM19.25 16.375C18.216 16.375 17.375 15.534 17.375 14.5C17.375 13.466 18.216 12.625 19.25 12.625C20.284 12.625 21.125 13.466 21.125 14.5C21.125 15.534 20.284 16.375 19.25 16.375Z" fill="currentColor"/>
</svg>