<svg width="26" height="19" viewBox="0 0 26 25" xmlns="http://www.w3.org/2000/svg">
<path d="M25.1094 12.4771C25.1217 19.149 19.6807 24.6046 13.0088 24.6093C10.1272 24.6114 7.48032 23.6069 5.40029 21.9281C4.85942 21.4916 4.81899 20.681 5.3105 20.1895L5.86064 19.6394C6.28101 19.219 6.9521 19.173 7.41782 19.5425C8.95029 20.7585 10.8897 21.4844 13 21.4844C17.9661 21.4844 21.9844 17.4653 21.9844 12.5C21.9844 7.53394 17.9653 3.51562 13 3.51562C10.6165 3.51562 8.45171 4.44185 6.84434 5.95371L9.32256 8.43193C9.81475 8.92412 9.46616 9.76562 8.77017 9.76562H1.67188C1.24038 9.76562 0.890625 9.41587 0.890625 8.98438V1.88608C0.890625 1.19009 1.73213 0.841504 2.22432 1.33364L4.63506 3.74438C6.80903 1.6668 9.75547 0.390625 13 0.390625C19.6802 0.390625 25.097 5.7998 25.1094 12.4771ZM16.2758 16.324L16.7554 15.7073C17.1528 15.1964 17.0607 14.4601 16.5499 14.0628L14.5625 12.517V7.42188C14.5625 6.77466 14.0378 6.25 13.3906 6.25H12.6094C11.9622 6.25 11.4375 6.77466 11.4375 7.42188V14.0455L14.6313 16.5295C15.1422 16.9269 15.8784 16.8349 16.2758 16.324Z" fill="currentColor"/>
</svg>