<svg width="25" height="25" viewBox="0 0 25 25" fill="none" xmlns="http://www.w3.org/2000/svg">
<g clip-path="url(#clip0_217_2)">
<path d="M12.1688 7.82377L4.16665 14.4145V21.5278C4.16665 21.7119 4.23981 21.8886 4.37004 22.0188C4.50028 22.149 4.67691 22.2222 4.86109 22.2222L9.7248 22.2096C9.90838 22.2087 10.0841 22.1351 10.2136 22.005C10.3431 21.8749 10.4158 21.6988 10.4158 21.5152V17.3611C10.4158 17.1769 10.4889 17.0003 10.6192 16.8701C10.7494 16.7398 10.926 16.6667 11.1102 16.6667H13.888C14.0722 16.6667 14.2488 16.7398 14.379 16.8701C14.5093 17.0003 14.5824 17.1769 14.5824 17.3611V21.5121C14.5822 21.6035 14.5999 21.6941 14.6347 21.7786C14.6695 21.8631 14.7206 21.9399 14.7851 22.0046C14.8496 22.0693 14.9262 22.1207 15.0106 22.1557C15.095 22.1907 15.1855 22.2088 15.2769 22.2088L20.1389 22.2222C20.323 22.2222 20.4997 22.149 20.6299 22.0188C20.7601 21.8886 20.8333 21.7119 20.8333 21.5278V14.4097L12.8329 7.82377C12.7388 7.74796 12.6217 7.70662 12.5008 7.70662C12.38 7.70662 12.2629 7.74796 12.1688 7.82377ZM24.809 12.3034L21.1805 9.31249V3.30077C21.1805 3.16264 21.1257 3.03016 21.028 2.93249C20.9303 2.83481 20.7978 2.77994 20.6597 2.77994H18.2291C18.091 2.77994 17.9585 2.83481 17.8609 2.93249C17.7632 3.03016 17.7083 3.16264 17.7083 3.30077V6.45225L13.8225 3.2552C13.4496 2.94833 12.9816 2.78055 12.4987 2.78055C12.0157 2.78055 11.5478 2.94833 11.1749 3.2552L0.188347 12.3034C0.135607 12.347 0.0919735 12.4005 0.0599388 12.461C0.0279041 12.5214 0.00809631 12.5876 0.00164726 12.6557C-0.00480179 12.7239 0.00223428 12.7926 0.0223534 12.858C0.0424726 12.9234 0.0752806 12.9842 0.118903 13.0369L1.22567 14.3824C1.26918 14.4353 1.32269 14.4791 1.38314 14.5113C1.44359 14.5434 1.5098 14.5634 1.57797 14.57C1.64614 14.5765 1.71494 14.5696 1.78043 14.5496C1.84592 14.5295 1.90681 14.4967 1.95961 14.4531L12.1688 6.04426C12.2629 5.96845 12.38 5.9271 12.5008 5.9271C12.6217 5.9271 12.7388 5.96845 12.8329 6.04426L23.0425 14.4531C23.0952 14.4967 23.156 14.5295 23.2214 14.5497C23.2868 14.5698 23.3555 14.5768 23.4237 14.5704C23.4918 14.5639 23.558 14.5441 23.6184 14.5121C23.6789 14.48 23.7324 14.4364 23.776 14.3837L24.8828 13.0382C24.9264 12.9852 24.959 12.9241 24.9789 12.8584C24.9988 12.7927 25.0055 12.7237 24.9986 12.6554C24.9918 12.5872 24.9715 12.5209 24.939 12.4605C24.9064 12.4001 24.8623 12.3467 24.809 12.3034Z" fill="currentColor"/>
</g>
<defs>
<clipPath id="clip0_217_2">
<rect width="25" height="25" fill="white"/>
</clipPath>
</defs>
</svg>
