<svg width="22" height="25" viewBox="0 0 22 25" fill="none" xmlns="http://www.w3.org/2000/svg">
<path d="M0.0625 22.6562C0.0625 23.9502 1.1123 25 2.40625 25H19.5938C20.8877 25 21.9375 23.9502 21.9375 22.6562V9.375H0.0625V22.6562ZM15.6875 13.0859C15.6875 12.7637 15.9512 12.5 16.2734 12.5H18.2266C18.5488 12.5 18.8125 12.7637 18.8125 13.0859V15.0391C18.8125 15.3613 18.5488 15.625 18.2266 15.625H16.2734C15.9512 15.625 15.6875 15.3613 15.6875 15.0391V13.0859ZM15.6875 19.3359C15.6875 19.0137 15.9512 18.75 16.2734 18.75H18.2266C18.5488 18.75 18.8125 19.0137 18.8125 19.3359V21.2891C18.8125 21.6113 18.5488 21.875 18.2266 21.875H16.2734C15.9512 21.875 15.6875 21.6113 15.6875 21.2891V19.3359ZM9.4375 13.0859C9.4375 12.7637 9.70117 12.5 10.0234 12.5H11.9766C12.2988 12.5 12.5625 12.7637 12.5625 13.0859V15.0391C12.5625 15.3613 12.2988 15.625 11.9766 15.625H10.0234C9.70117 15.625 9.4375 15.3613 9.4375 15.0391V13.0859ZM9.4375 19.3359C9.4375 19.0137 9.70117 18.75 10.0234 18.75H11.9766C12.2988 18.75 12.5625 19.0137 12.5625 19.3359V21.2891C12.5625 21.6113 12.2988 21.875 11.9766 21.875H10.0234C9.70117 21.875 9.4375 21.6113 9.4375 21.2891V19.3359ZM3.1875 13.0859C3.1875 12.7637 3.45117 12.5 3.77344 12.5H5.72656C6.04883 12.5 6.3125 12.7637 6.3125 13.0859V15.0391C6.3125 15.3613 6.04883 15.625 5.72656 15.625H3.77344C3.45117 15.625 3.1875 15.3613 3.1875 15.0391V13.0859ZM3.1875 19.3359C3.1875 19.0137 3.45117 18.75 3.77344 18.75H5.72656C6.04883 18.75 6.3125 19.0137 6.3125 19.3359V21.2891C6.3125 21.6113 6.04883 21.875 5.72656 21.875H3.77344C3.45117 21.875 3.1875 21.6113 3.1875 21.2891V19.3359ZM19.5938 3.125H17.25V0.78125C17.25 0.351562 16.8984 0 16.4688 0H14.9062C14.4766 0 14.125 0.351562 14.125 0.78125V3.125H7.875V0.78125C7.875 0.351562 7.52344 0 7.09375 0H5.53125C5.10156 0 4.75 0.351562 4.75 0.78125V3.125H2.40625C1.1123 3.125 0.0625 4.1748 0.0625 5.46875V7.8125H21.9375V5.46875C21.9375 4.1748 20.8877 3.125 19.5938 3.125Z" fill="currentColor"/>
</svg>
